<mxfile host="app.diagrams.net" modified="2022-10-27T03:00:32.735Z" agent="5.0 (Windows NT 10.0; Win64; x64) AppleWebKit/537.36 (KHTML, like Gecko) Chrome/107.0.0.0 Safari/537.36" etag="odVQT8GfTNWaZbxrZCn8" version="20.5.1" type="github">
  <diagram id="vEWv4qXFWpIylbJv5wqX" name="Page-1">
    <mxGraphModel dx="1221" dy="1855" grid="1" gridSize="10" guides="1" tooltips="1" connect="1" arrows="1" fold="1" page="1" pageScale="1" pageWidth="827" pageHeight="1169" math="0" shadow="0">
      <root>
        <mxCell id="0" />
        <mxCell id="1" parent="0" />
        <mxCell id="1Zje5qMNcmAOSJUfGzIi-13" style="edgeStyle=orthogonalEdgeStyle;rounded=0;orthogonalLoop=1;jettySize=auto;html=1;" parent="1" source="1Zje5qMNcmAOSJUfGzIi-1" target="1Zje5qMNcmAOSJUfGzIi-11" edge="1">
          <mxGeometry relative="1" as="geometry" />
        </mxCell>
        <mxCell id="1Zje5qMNcmAOSJUfGzIi-14" style="edgeStyle=orthogonalEdgeStyle;rounded=0;orthogonalLoop=1;jettySize=auto;html=1;entryX=1;entryY=0.5;entryDx=0;entryDy=0;" parent="1" source="1Zje5qMNcmAOSJUfGzIi-1" target="1Zje5qMNcmAOSJUfGzIi-9" edge="1">
          <mxGeometry relative="1" as="geometry">
            <Array as="points">
              <mxPoint x="135" y="170" />
              <mxPoint x="135" y="130" />
            </Array>
          </mxGeometry>
        </mxCell>
        <mxCell id="1Zje5qMNcmAOSJUfGzIi-15" style="edgeStyle=orthogonalEdgeStyle;rounded=0;orthogonalLoop=1;jettySize=auto;html=1;entryX=1;entryY=1;entryDx=0;entryDy=0;" parent="1" source="1Zje5qMNcmAOSJUfGzIi-1" target="1Zje5qMNcmAOSJUfGzIi-12" edge="1">
          <mxGeometry relative="1" as="geometry">
            <Array as="points">
              <mxPoint x="180" y="140" />
              <mxPoint x="150" y="140" />
              <mxPoint x="150" y="120" />
              <mxPoint x="125" y="120" />
            </Array>
          </mxGeometry>
        </mxCell>
        <mxCell id="1Zje5qMNcmAOSJUfGzIi-16" style="edgeStyle=orthogonalEdgeStyle;rounded=0;orthogonalLoop=1;jettySize=auto;html=1;entryX=0.5;entryY=1;entryDx=0;entryDy=0;" parent="1" source="1Zje5qMNcmAOSJUfGzIi-1" target="1Zje5qMNcmAOSJUfGzIi-7" edge="1">
          <mxGeometry relative="1" as="geometry" />
        </mxCell>
        <mxCell id="1Zje5qMNcmAOSJUfGzIi-17" style="edgeStyle=orthogonalEdgeStyle;rounded=0;orthogonalLoop=1;jettySize=auto;html=1;entryX=0.5;entryY=1;entryDx=0;entryDy=0;" parent="1" source="1Zje5qMNcmAOSJUfGzIi-1" target="1Zje5qMNcmAOSJUfGzIi-6" edge="1">
          <mxGeometry relative="1" as="geometry">
            <Array as="points">
              <mxPoint x="235" y="150" />
              <mxPoint x="235" y="150" />
            </Array>
          </mxGeometry>
        </mxCell>
        <mxCell id="1Zje5qMNcmAOSJUfGzIi-1" value="Profesor" style="whiteSpace=wrap;html=1;align=center;" parent="1" vertex="1">
          <mxGeometry x="160" y="160" width="100" height="40" as="geometry" />
        </mxCell>
        <mxCell id="jHfMhXFD-FpWSZV_BeVn-10" style="edgeStyle=orthogonalEdgeStyle;rounded=0;orthogonalLoop=1;jettySize=auto;html=1;entryX=0.5;entryY=1;entryDx=0;entryDy=0;" edge="1" parent="1" source="1Zje5qMNcmAOSJUfGzIi-2" target="jHfMhXFD-FpWSZV_BeVn-5">
          <mxGeometry relative="1" as="geometry">
            <Array as="points">
              <mxPoint x="630" y="140" />
              <mxPoint x="650" y="140" />
            </Array>
          </mxGeometry>
        </mxCell>
        <mxCell id="jHfMhXFD-FpWSZV_BeVn-11" style="edgeStyle=orthogonalEdgeStyle;rounded=0;orthogonalLoop=1;jettySize=auto;html=1;entryX=0.5;entryY=1;entryDx=0;entryDy=0;" edge="1" parent="1" source="1Zje5qMNcmAOSJUfGzIi-2" target="jHfMhXFD-FpWSZV_BeVn-6">
          <mxGeometry relative="1" as="geometry">
            <Array as="points">
              <mxPoint x="600" y="140" />
              <mxPoint x="575" y="140" />
            </Array>
          </mxGeometry>
        </mxCell>
        <mxCell id="jHfMhXFD-FpWSZV_BeVn-12" style="edgeStyle=orthogonalEdgeStyle;rounded=0;orthogonalLoop=1;jettySize=auto;html=1;entryX=0.5;entryY=0;entryDx=0;entryDy=0;" edge="1" parent="1" source="1Zje5qMNcmAOSJUfGzIi-2" target="jHfMhXFD-FpWSZV_BeVn-7">
          <mxGeometry relative="1" as="geometry">
            <Array as="points">
              <mxPoint x="600" y="220" />
              <mxPoint x="575" y="220" />
            </Array>
          </mxGeometry>
        </mxCell>
        <mxCell id="jHfMhXFD-FpWSZV_BeVn-13" style="edgeStyle=orthogonalEdgeStyle;rounded=0;orthogonalLoop=1;jettySize=auto;html=1;entryX=0.5;entryY=0;entryDx=0;entryDy=0;" edge="1" parent="1" source="1Zje5qMNcmAOSJUfGzIi-2" target="jHfMhXFD-FpWSZV_BeVn-8">
          <mxGeometry relative="1" as="geometry">
            <Array as="points">
              <mxPoint x="630" y="220" />
              <mxPoint x="650" y="220" />
            </Array>
          </mxGeometry>
        </mxCell>
        <mxCell id="1Zje5qMNcmAOSJUfGzIi-2" value="Modulo" style="whiteSpace=wrap;html=1;align=center;" parent="1" vertex="1">
          <mxGeometry x="575" y="160" width="100" height="40" as="geometry" />
        </mxCell>
        <mxCell id="jHfMhXFD-FpWSZV_BeVn-2" style="edgeStyle=orthogonalEdgeStyle;rounded=0;orthogonalLoop=1;jettySize=auto;html=1;" edge="1" parent="1" source="1Zje5qMNcmAOSJUfGzIi-3" target="jHfMhXFD-FpWSZV_BeVn-1">
          <mxGeometry relative="1" as="geometry" />
        </mxCell>
        <mxCell id="jHfMhXFD-FpWSZV_BeVn-4" style="edgeStyle=orthogonalEdgeStyle;rounded=0;orthogonalLoop=1;jettySize=auto;html=1;" edge="1" parent="1" source="1Zje5qMNcmAOSJUfGzIi-3" target="jHfMhXFD-FpWSZV_BeVn-3">
          <mxGeometry relative="1" as="geometry" />
        </mxCell>
        <mxCell id="1Zje5qMNcmAOSJUfGzIi-3" value="Carrera" style="whiteSpace=wrap;html=1;align=center;" parent="1" vertex="1">
          <mxGeometry x="580" y="360" width="100" height="40" as="geometry" />
        </mxCell>
        <mxCell id="jHfMhXFD-FpWSZV_BeVn-21" style="edgeStyle=orthogonalEdgeStyle;rounded=0;orthogonalLoop=1;jettySize=auto;html=1;" edge="1" parent="1" source="1Zje5qMNcmAOSJUfGzIi-4" target="jHfMhXFD-FpWSZV_BeVn-15">
          <mxGeometry relative="1" as="geometry">
            <Array as="points">
              <mxPoint x="658" y="-40" />
              <mxPoint x="658" y="-40" />
            </Array>
          </mxGeometry>
        </mxCell>
        <mxCell id="jHfMhXFD-FpWSZV_BeVn-22" style="edgeStyle=orthogonalEdgeStyle;rounded=0;orthogonalLoop=1;jettySize=auto;html=1;entryX=1;entryY=0.5;entryDx=0;entryDy=0;" edge="1" parent="1" source="1Zje5qMNcmAOSJUfGzIi-4" target="jHfMhXFD-FpWSZV_BeVn-18">
          <mxGeometry relative="1" as="geometry">
            <Array as="points">
              <mxPoint x="610" y="-20" />
            </Array>
          </mxGeometry>
        </mxCell>
        <mxCell id="jHfMhXFD-FpWSZV_BeVn-23" style="edgeStyle=orthogonalEdgeStyle;rounded=0;orthogonalLoop=1;jettySize=auto;html=1;entryX=1;entryY=0.5;entryDx=0;entryDy=0;" edge="1" parent="1" source="1Zje5qMNcmAOSJUfGzIi-4" target="jHfMhXFD-FpWSZV_BeVn-20">
          <mxGeometry relative="1" as="geometry" />
        </mxCell>
        <mxCell id="jHfMhXFD-FpWSZV_BeVn-24" style="edgeStyle=orthogonalEdgeStyle;rounded=0;orthogonalLoop=1;jettySize=auto;html=1;entryX=0.5;entryY=1;entryDx=0;entryDy=0;" edge="1" parent="1" source="1Zje5qMNcmAOSJUfGzIi-4" target="jHfMhXFD-FpWSZV_BeVn-19">
          <mxGeometry relative="1" as="geometry">
            <Array as="points">
              <mxPoint x="545" y="-80" />
            </Array>
          </mxGeometry>
        </mxCell>
        <mxCell id="jHfMhXFD-FpWSZV_BeVn-25" style="edgeStyle=orthogonalEdgeStyle;rounded=0;orthogonalLoop=1;jettySize=auto;html=1;entryX=0.5;entryY=1;entryDx=0;entryDy=0;" edge="1" parent="1" source="1Zje5qMNcmAOSJUfGzIi-4" target="jHfMhXFD-FpWSZV_BeVn-17">
          <mxGeometry relative="1" as="geometry">
            <Array as="points">
              <mxPoint x="650" y="-100" />
              <mxPoint x="650" y="-100" />
            </Array>
          </mxGeometry>
        </mxCell>
        <mxCell id="1Zje5qMNcmAOSJUfGzIi-4" value="Alumno" style="whiteSpace=wrap;html=1;align=center;" parent="1" vertex="1">
          <mxGeometry x="580" y="-90" width="100" height="40" as="geometry" />
        </mxCell>
        <mxCell id="1Zje5qMNcmAOSJUfGzIi-5" value="" style="edgeStyle=entityRelationEdgeStyle;fontSize=12;html=1;endArrow=ERmany;startArrow=ERmany;rounded=0;" parent="1" source="1Zje5qMNcmAOSJUfGzIi-1" target="1Zje5qMNcmAOSJUfGzIi-2" edge="1">
          <mxGeometry width="100" height="100" relative="1" as="geometry">
            <mxPoint x="360" y="350" as="sourcePoint" />
            <mxPoint x="460" y="250" as="targetPoint" />
          </mxGeometry>
        </mxCell>
        <mxCell id="1Zje5qMNcmAOSJUfGzIi-6" value="rfc" style="ellipse;whiteSpace=wrap;html=1;align=center;" parent="1" vertex="1">
          <mxGeometry x="210" y="80" width="50" height="20" as="geometry" />
        </mxCell>
        <mxCell id="1Zje5qMNcmAOSJUfGzIi-7" value="nombre" style="ellipse;whiteSpace=wrap;html=1;align=center;" parent="1" vertex="1">
          <mxGeometry x="150" y="80" width="50" height="20" as="geometry" />
        </mxCell>
        <mxCell id="1Zje5qMNcmAOSJUfGzIi-9" value="direccion" style="ellipse;whiteSpace=wrap;html=1;align=center;" parent="1" vertex="1">
          <mxGeometry x="40" y="120" width="70" height="20" as="geometry" />
        </mxCell>
        <mxCell id="1Zje5qMNcmAOSJUfGzIi-11" value="telefono" style="ellipse;whiteSpace=wrap;html=1;align=center;" parent="1" vertex="1">
          <mxGeometry x="45" y="170" width="60" height="20" as="geometry" />
        </mxCell>
        <mxCell id="1Zje5qMNcmAOSJUfGzIi-12" value="departamento" style="ellipse;whiteSpace=wrap;html=1;align=center;" parent="1" vertex="1">
          <mxGeometry x="40" y="80" width="100" height="20" as="geometry" />
        </mxCell>
        <mxCell id="1Zje5qMNcmAOSJUfGzIi-18" value="Imparte" style="shape=rhombus;perimeter=rhombusPerimeter;whiteSpace=wrap;html=1;align=center;" parent="1" vertex="1">
          <mxGeometry x="340" y="150" width="120" height="60" as="geometry" />
        </mxCell>
        <mxCell id="1Zje5qMNcmAOSJUfGzIi-19" value="" style="edgeStyle=entityRelationEdgeStyle;fontSize=12;html=1;endArrow=ERmany;startArrow=ERmany;rounded=0;" parent="1" source="1Zje5qMNcmAOSJUfGzIi-3" target="1Zje5qMNcmAOSJUfGzIi-2" edge="1">
          <mxGeometry width="100" height="100" relative="1" as="geometry">
            <mxPoint x="360" y="350" as="sourcePoint" />
            <mxPoint x="460" y="250" as="targetPoint" />
          </mxGeometry>
        </mxCell>
        <mxCell id="1Zje5qMNcmAOSJUfGzIi-20" value="Pertenecen a" style="shape=rhombus;perimeter=rhombusPerimeter;whiteSpace=wrap;html=1;align=center;" parent="1" vertex="1">
          <mxGeometry x="650" y="250" width="120" height="60" as="geometry" />
        </mxCell>
        <mxCell id="1Zje5qMNcmAOSJUfGzIi-24" value="" style="edgeStyle=entityRelationEdgeStyle;fontSize=12;html=1;endArrow=ERmany;startArrow=ERmany;rounded=0;" parent="1" source="1Zje5qMNcmAOSJUfGzIi-2" target="1Zje5qMNcmAOSJUfGzIi-4" edge="1">
          <mxGeometry width="100" height="100" relative="1" as="geometry">
            <mxPoint x="370" y="200" as="sourcePoint" />
            <mxPoint x="470" y="100" as="targetPoint" />
          </mxGeometry>
        </mxCell>
        <mxCell id="1Zje5qMNcmAOSJUfGzIi-25" value="Tiene" style="shape=rhombus;perimeter=rhombusPerimeter;whiteSpace=wrap;html=1;align=center;" parent="1" vertex="1">
          <mxGeometry x="650" y="30" width="120" height="60" as="geometry" />
        </mxCell>
        <mxCell id="jHfMhXFD-FpWSZV_BeVn-1" value="clave" style="ellipse;whiteSpace=wrap;html=1;align=center;" vertex="1" parent="1">
          <mxGeometry x="460" y="365" width="80" height="30" as="geometry" />
        </mxCell>
        <mxCell id="jHfMhXFD-FpWSZV_BeVn-3" value="nombre" style="ellipse;whiteSpace=wrap;html=1;align=center;" vertex="1" parent="1">
          <mxGeometry x="590" y="420" width="80" height="30" as="geometry" />
        </mxCell>
        <mxCell id="jHfMhXFD-FpWSZV_BeVn-5" value="codigo" style="ellipse;whiteSpace=wrap;html=1;align=center;" vertex="1" parent="1">
          <mxGeometry x="625" y="100" width="50" height="20" as="geometry" />
        </mxCell>
        <mxCell id="jHfMhXFD-FpWSZV_BeVn-6" value="nombre" style="ellipse;whiteSpace=wrap;html=1;align=center;" vertex="1" parent="1">
          <mxGeometry x="550" y="100" width="50" height="20" as="geometry" />
        </mxCell>
        <mxCell id="jHfMhXFD-FpWSZV_BeVn-7" value="creditos" style="ellipse;whiteSpace=wrap;html=1;align=center;" vertex="1" parent="1">
          <mxGeometry x="550" y="230" width="50" height="20" as="geometry" />
        </mxCell>
        <mxCell id="jHfMhXFD-FpWSZV_BeVn-14" style="edgeStyle=orthogonalEdgeStyle;rounded=0;orthogonalLoop=1;jettySize=auto;html=1;exitX=0;exitY=0.5;exitDx=0;exitDy=0;" edge="1" parent="1" source="jHfMhXFD-FpWSZV_BeVn-8">
          <mxGeometry relative="1" as="geometry">
            <mxPoint x="610" y="250" as="targetPoint" />
          </mxGeometry>
        </mxCell>
        <mxCell id="jHfMhXFD-FpWSZV_BeVn-8" value="semestre" style="ellipse;whiteSpace=wrap;html=1;align=center;" vertex="1" parent="1">
          <mxGeometry x="620" y="230" width="60" height="20" as="geometry" />
        </mxCell>
        <mxCell id="jHfMhXFD-FpWSZV_BeVn-15" value="Boleta" style="ellipse;whiteSpace=wrap;html=1;align=center;" vertex="1" parent="1">
          <mxGeometry x="630" y="-30" width="55" height="20" as="geometry" />
        </mxCell>
        <mxCell id="jHfMhXFD-FpWSZV_BeVn-17" value="fechaNacimiento" style="ellipse;whiteSpace=wrap;html=1;align=center;" vertex="1" parent="1">
          <mxGeometry x="600" y="-150" width="100" height="30" as="geometry" />
        </mxCell>
        <mxCell id="jHfMhXFD-FpWSZV_BeVn-18" value="Sexo" style="ellipse;whiteSpace=wrap;html=1;align=center;" vertex="1" parent="1">
          <mxGeometry x="520" y="-30" width="50" height="20" as="geometry" />
        </mxCell>
        <mxCell id="jHfMhXFD-FpWSZV_BeVn-19" value="Apellidos" style="ellipse;whiteSpace=wrap;html=1;align=center;" vertex="1" parent="1">
          <mxGeometry x="515" y="-145" width="60" height="20" as="geometry" />
        </mxCell>
        <mxCell id="jHfMhXFD-FpWSZV_BeVn-20" value="nombre" style="ellipse;whiteSpace=wrap;html=1;align=center;" vertex="1" parent="1">
          <mxGeometry x="490" y="-80" width="50" height="20" as="geometry" />
        </mxCell>
      </root>
    </mxGraphModel>
  </diagram>
</mxfile>
